<?xml version="1.0" encoding="utf-8"?>
<!-- Generator: Adobe Illustrator 23.1.0, SVG Export Plug-In . SVG Version: 6.00 Build 0)  -->
<svg version="1.1" id="Camada_1" xmlns="http://www.w3.org/2000/svg" xmlns:xlink="http://www.w3.org/1999/xlink" x="0px" y="0px"
	 viewBox="0 0 231 62" style="enable-background:new 0 0 231 62;" xml:space="preserve">
<style type="text/css">
	.st0{fill:#4D76B8;}
</style>
<path class="st0" d="M20.1,13.9c0-5.9-4.4-10.7-9.7-10.7h-0.1v22.1l0,0v9.3c0,6,4.4,10.8,9.8,10.9V25.3l0,0V13.9z M64.1,2.9
	c-3.9,0-7.6,1.3-10.5,3.5c-1.8-2-4.2-3.2-6.9-3.2h-0.1c0,15.4,0,30.7,0,46.1c0,6,4.4,10.8,9.8,10.9v-24c2.3,1.2,4.9,1.8,7.7,1.8
	c9.6,0,17.5-7.9,17.5-17.5C81.6,10.8,73.7,2.9,64.1,2.9z M63.9,33.6c-0.2-1.1-0.5-2-0.8-2.7c-1.3-2.5-3.7-2.4-6.6-5.6
	c-1.1-1.2-1.6-2.6-1.8-3.9V20c0.3-3.3,2.7-6.3,3.7-6.9c-0.5,4.1,1.5,6.6,2.3,7.3c0.8,0.8,1.6,1.4,2.4,2.1c0.9,0.8,1.6,1.6,2.2,2.8
	C67.1,29.5,64.6,32.7,63.9,33.6z M71.6,27.5c-2,2-5.1,2.5-5.1,2.5c0.5-1.6,0.7-3.7-0.3-5.6c-0.8-1.6-1.9-2.6-3.2-4
	c-0.5-0.6-1.1-1.2-1.7-1.9c-2-2.3-1.7-7.2,1.7-10.7c0.5-0.5,1.1-1,1.8-1.5c-1.5,2.6-1.9,6.4,0.2,8c0.6-4.4,2.7-5.5,2.7-5.5
	c-0.9,1.8-0.6,3.5,0.3,5.1c1.4,2.5,3.8,3.3,5,5.3C74.5,21.7,73.6,25.5,71.6,27.5z M44.3,13.9c0-5.9-4.4-10.7-9.7-10.7h-0.1v22.1l0,0
	v9.3c0,6,4.4,10.8,9.8,10.9V25.3l0,0V13.9z M32.2,13.9c0-5.9-4.4-10.7-9.7-10.7h-0.1v22.1l0,0v9.3c0,6,4.4,10.8,9.8,10.9V25.3l0,0
	V13.9z M96,12.4l2.3,5.7h1.4l2.3-5.7v5.7h1.8V9.6h-2.5L99,15.4l-2.3-5.8h-2.5v8.5H96V12.4z M107.2,9.6h-1.9v8.5h1.9V9.6z M116.3,9.6
	h-1.8V15l-3.9-5.4h-2v8.5h1.8v-5.8l4.2,5.8h1.7C116.3,18.1,116.3,9.6,116.3,9.6z M119.6,9.6h-1.9v8.5h1.9V9.6z M124.6,16.7
	c-1.1,0-2.2-0.3-3.1-0.9l-0.9,1.4c1,0.7,2.4,1.1,4.1,1.1c2.8,0,3.8-1,3.8-2.7c0-1.9-1.4-2.3-3.4-2.6c-1.4-0.2-2.1-0.3-2.1-1
	c0-0.6,0.3-0.9,1.7-0.9c0.9,0,1.9,0.3,2.5,0.7l1-1.5c-0.7-0.4-1.7-0.8-3.5-0.8c-2.4,0-3.6,0.7-3.6,2.6s1.2,2.3,3.5,2.6
	c1.3,0.2,2,0.3,2,1C126.6,16.3,126.2,16.7,124.6,16.7z M131.4,18.1h1.9v-6.8h3V9.6h-7.8v1.7h3L131.4,18.1L131.4,18.1z M142.7,7h-2.2
	l-1.6,2.1h1.6L142.7,7z M143.5,16.5h-4.6v-1.9h4.4V13h-4.4v-1.7h4.5V9.6H137v8.5h6.5V16.5z M149.8,18.1h2l-1.7-3
	c1.4-0.4,1.8-1.5,1.8-2.7c0-1.6-0.6-2.8-3.3-2.8h-4.1v8.5h1.8v-2.8h1.9L149.8,18.1z M146.3,11.2h2.2c1.1,0,1.5,0.3,1.5,1.2
	c0,1-0.5,1.2-1.5,1.2h-2.2V11.2z M154.9,9.6H153v8.5h1.9V9.6z M182.7,14.6c0,1.3-0.3,2-2.1,2c-1.7,0-2-0.7-2-2v-5h-1.9v5.3
	c0,1.6,0.3,3.4,3.9,3.4c3.6,0,3.9-1.8,3.9-3.4V9.6h-1.8L182.7,14.6L182.7,14.6z M170.2,15.5h2.2c2.8,0,3.5-1.3,3.5-3.1
	s-0.8-2.9-3.4-2.9h-4.1V18h1.8V15.5z M170.2,11.2h2.2c1.1,0,1.6,0.3,1.6,1.3s-0.5,1.4-1.5,1.4h-2.2v-2.7H170.2z M183.2,7H181
	l-1.6,2.1h1.6L183.2,7z M193.2,15.7c0-1.2-0.4-1.9-1.4-2.1c0.8-0.3,1.1-0.9,1.1-1.9c0-1.6-1-2.2-3.2-2.2h-4V18h3.9
	C192,18.1,193.2,17.6,193.2,15.7z M187.6,11.2h2.2c1,0,1.3,0.3,1.3,0.9c0,0.6-0.3,0.9-1.3,0.9h-2.2V11.2z M187.6,14.6h2.3
	c1,0,1.4,0.3,1.4,1c0,0.7-0.4,1-1.4,1h-2.3V14.6z M160.6,9.4c-2.7,0-4.5,1.2-4.5,4.4s1.8,4.4,4.5,4.4s4.5-1.2,4.5-4.4
	S163.3,9.4,160.6,9.4z M160.6,16.6c-2,0-2.6-1-2.6-2.7s0.7-2.7,2.6-2.7c2,0,2.6,1,2.6,2.7C163.2,15.5,162.5,16.6,160.6,16.6z
	 M200.1,16.5h-4.2V9.6H194v8.5h6.1V16.5z M201,18.1h1.9V9.6H201V18.1z M97.4,23.4h-3.1v8.5h3c3.4,0,4.8-0.9,4.8-4.3
	C102.2,24.3,100.8,23.4,97.4,23.4z M97.5,30.3h-1.2v-5.2h1.2c2.4,0,2.8,0.6,2.8,2.6C100.3,29.6,99.8,30.3,97.5,30.3z M216.5,18.2
	c2.7,0,4.5-1.2,4.5-4.4s-1.8-4.4-4.5-4.4s-4.5,1.2-4.5,4.4S213.8,18.2,216.5,18.2z M216.5,11.1c2,0,2.6,1,2.6,2.7s-0.7,2.7-2.6,2.7
	c-2,0-2.6-1-2.6-2.7C213.9,12.2,214.6,11.1,216.5,11.1z M107.2,23.3c-2.7,0-4.5,1.2-4.5,4.4s1.8,4.4,4.5,4.4s4.5-1.2,4.5-4.4
	C111.8,24.5,109.9,23.3,107.2,23.3z M107.2,30.4c-2,0-2.6-1-2.6-2.7s0.7-2.7,2.6-2.7c2,0,2.6,1,2.6,2.7
	C109.8,29.4,109.2,30.4,107.2,30.4z M208.3,16.5c-2,0-2.6-1-2.6-2.7c0-1.8,0.8-2.7,2.6-2.7c0.9,0,1.5,0.3,2.1,0.8l1.3-1.3
	c-0.8-0.8-1.8-1.2-3.4-1.2c-2.8,0-4.5,1.3-4.5,4.4c0,2.8,1.2,4.4,4.4,4.4c1.9,0,2.8-0.6,3.5-1.3l-1.2-1.2
	C209.9,16.2,209.4,16.5,208.3,16.5z M116.9,28.4h4.4v-1.6h-4.4v-1.7h4.5v-1.7H115v8.5h6.5v-1.6h-4.6V28.4z M126.6,26.8
	c-1.4-0.2-2.1-0.3-2.1-1c0-0.6,0.3-0.9,1.7-0.9c0.9,0,1.9,0.3,2.5,0.7l1-1.5c-0.7-0.4-1.7-0.8-3.5-0.8c-2.4,0-3.6,0.7-3.6,2.6
	s1.2,2.3,3.5,2.6c1.3,0.2,2,0.3,2,1s-0.3,1-2,1c-1.1,0-2.2-0.3-3.1-0.9l-0.9,1.4c1,0.7,2.4,1.1,4.1,1.1c2.8,0,3.8-1,3.8-2.7
	C130.1,27.4,128.7,27.1,126.6,26.8z M138.1,23.4h-7.8v1.7h3v6.8h1.9v-6.8h3L138.1,23.4L138.1,23.4z M140.2,23.3l-3.4,8.6h1.8
	l0.6-1.4h3.9l0.6,1.4h2l-3.4-8.6H140.2z M139.8,29l1.3-3.4l1.3,3.4H139.8z M149.4,23.4h-3.1v8.5h3c3.4,0,4.8-0.9,4.8-4.3
	C154.2,24.3,152.8,23.4,149.4,23.4z M149.5,30.3h-1.2v-5.2h1.2c2.4,0,2.8,0.6,2.8,2.6C152.3,29.6,151.8,30.3,149.5,30.3z
	 M159.2,23.3c-2.7,0-4.5,1.2-4.5,4.4s1.8,4.4,4.5,4.4s4.5-1.2,4.5-4.4C163.8,24.5,162,23.3,159.2,23.3z M159.2,30.4
	c-2,0-2.6-1-2.6-2.7s0.7-2.7,2.6-2.7c2,0,2.6,1,2.6,2.7C161.9,29.4,161.2,30.4,159.2,30.4z M170.1,23.4H167v8.5h3
	c3.4,0,4.8-0.9,4.8-4.3C174.9,24.3,173.5,23.4,170.1,23.4z M170.2,30.3H169v-5.2h1.2c2.4,0,2.8,0.6,2.8,2.6
	C173,29.6,172.5,30.3,170.2,30.3z M178,23.3l-3.4,8.6h1.8l0.6-1.4h3.9l0.6,1.4h2l-3.4-8.6H178z M177.6,29l1.3-3.4l1.3,3.4H177.6z
	 M192.5,27.5c0.8-0.3,1.1-0.9,1.1-1.9c0-1.6-1-2.2-3.2-2.2h-4v8.5h3.9c2.3,0,3.5-0.5,3.5-2.4C193.9,28.4,193.5,27.7,192.5,27.5z
	 M188.3,25h2.2c1,0,1.3,0.3,1.3,0.9s-0.3,0.9-1.3,0.9h-2.2V25z M190.6,30.4h-2.3v-1.9h2.3c1,0,1.4,0.3,1.4,1
	C192,30.1,191.6,30.4,190.6,30.4z M197.3,23.3l-3.4,8.6h1.8l0.6-1.4h3.9l0.6,1.4h2l-3.4-8.6H197.3z M196.9,29l1.3-3.4l1.3,3.4H196.9
	z M209.2,26.7h-3.9v-3.3h-1.9v8.5h1.9v-3.5h3.9v3.5h1.9v-8.5h-1.9V26.7z M212.5,31.9h1.9v-8.5h-1.9V31.9z M220.6,23.3h-1.9l-3.4,8.6
	h1.8l0.6-1.4h3.9l0.6,1.4h2L220.6,23.3z M218.3,29l1.3-3.4L221,29H218.3z"/>
</svg>
